{"title":"Desi Hindi Hidden Hot Couple Unseen Sex","uid":6450238,"size":327960572,"categoryP":"porn","categoryS":"movie_clips","magnet":"?xt=urn:btih:19fdd725058dd899b19343dc8aa69b810eae9bbf&amp;dn=Desi+Hindi+Hidden+Hot+Couple+Unseen+Sex&amp;tr=udp%3A%2F%2Ftracker.openbittorrent.com%3A80&amp;tr=udp%3A%2F%2Fopen.demonii.com%3A1337&amp;tr=udp%3A%2F%2Ftracker.coppersurfer.tk%3A6969&amp;tr=udp%3A%2F%2Fexodus.desync.com%3A6969","seeders":0,"leechers":1,"uploader":"Robin5555","files":1,"time":1307399391,"description":"------------------------------:TPB IS BENEDICTION TO ME :--------------------------\n\n\nScreen Link :---\n &lt;a href=&quot;\nhttp://www.desiupload.com/show.php/872822_DesiHindiHiddenHotCoupleUnseenSexthumb.jpg.html&quot; rel=&quot;nofollow&quot; target=&quot;_NEW&quot;&gt;\nhttp://www.desiupload.com/show.php/872822_DesiHindiHiddenHotCoupleUnseenSexthumb.jpg.html&lt;/a&gt;\n\n\nGeneral Info :---\n\nFormat                           : CDXA/MPEG-PS\nFile size                        : 313 MiB\nDuration                         : 32mn 10s\nOverall bit rate                 : 1 412 Kbps\n\nVideo\nID                               : 224 (0xE0)\nFormat                           : MPEG Video\nFormat version                   : Version 1\nFormat settings, BVOP            : Yes\nFormat settings, Matrix          : Default\nDuration                         : 32mn 10s\nBit rate mode                    : Constant\nBit rate                         : 1 116 Kbps\nWidth                            : 352 pixels\nHeight                           : 288 pixels\nDisplay aspect ratio             : 4:3\nFrame rate                       : 25.000 fps\nStandard                         : PAL\nColor space                      : YUV\nBit depth                        : 8 bits\nScan type                        : Progressive\nCompression mode                 : Lossy\nBits/(Pixel*Frame)               : 0.440\nStream size                      : 257 MiB (82%)\n\nAudio\nID                               : 192 (0xC0)\nFormat                           : MPEG Audio\nFormat version                   : Version 1\nFormat profile                   : Layer 2\nDuration                         : 30mn 58s\nBit rate mode                    : Constant\n\nBit rate                         : 224 Kbps\nChannel(s)                       : 2 channels\nSampling rate                    : 44.1 KHz\nCompression mode                 : Lossy\nDelay relative to video          : -231ms\nStream size                      : 49.6 MiB (16%)\n\n\n\n                                 Dedicated To Ekarth\n\n\n------------------------------:TPB IS BENEDICTION TO ME :--------------------------\n\n\n\n","torrent":{"xt":"urn:btih:19fdd725058dd899b19343dc8aa69b810eae9bbf","amp;dn":"Desi+Hindi+Hidden+Hot+Couple+Unseen+Sex","amp;tr":["udp%3A%2F%2Ftracker.openbittorrent.com%3A80","udp%3A%2F%2Fopen.demonii.com%3A1337","udp%3A%2F%2Ftracker.coppersurfer.tk%3A6969","udp%3A%2F%2Fexodus.desync.com%3A6969"],"infoHash":"19fdd725058dd899b19343dc8aa69b810eae9bbf","infoHashBuffer":{"type":"Buffer","data":[25,253,215,37,5,141,216,153,177,147,67,220,138,166,155,129,14,174,155,191]},"announce":[],"urlList":[]}}